<?xml version="1.0" encoding="utf-8"?>
<!-- Generator: Adobe Illustrator 16.0.4, SVG Export Plug-In . SVG Version: 6.00 Build 0)  -->
<!DOCTYPE svg PUBLIC "-//W3C//DTD SVG 1.1//EN" "http://www.w3.org/Graphics/SVG/1.1/DTD/svg11.dtd" [
	<!ENTITY ns_flows "http://ns.adobe.com/Flows/1.0/">
	<!ENTITY ns_extend "http://ns.adobe.com/Extensibility/1.0/">
	<!ENTITY ns_ai "http://ns.adobe.com/AdobeIllustrator/10.0/">
	<!ENTITY ns_graphs "http://ns.adobe.com/Graphs/1.0/">
	<!ENTITY ns_vars "http://ns.adobe.com/Variables/1.0/">
	<!ENTITY ns_imrep "http://ns.adobe.com/ImageReplacement/1.0/">
	<!ENTITY ns_sfw "http://ns.adobe.com/SaveForWeb/1.0/">
	<!ENTITY ns_custom "http://ns.adobe.com/GenericCustomNamespace/1.0/">
	<!ENTITY ns_adobe_xpath "http://ns.adobe.com/XPath/1.0/">
]>
<svg version="1.1" xmlns:x="&ns_extend;" xmlns:i="&ns_ai;" xmlns:graph="&ns_graphs;"
	 xmlns="http://www.w3.org/2000/svg" xmlns:xlink="http://www.w3.org/1999/xlink" xmlns:a="http://ns.adobe.com/AdobeSVGViewerExtensions/3.0/"
	 x="0px" y="0px" width="170px" height="170px" viewBox="0 0 170 170" enable-background="new 0 0 170 170" xml:space="preserve">
<metadata>
	<sfw  xmlns="&ns_sfw;">
		<slices></slices>
		<sliceSourceBounds  width="170" height="170" y="-170" x="0" bottomLeftOrigin="true"></sliceSourceBounds>
	</sfw>
</metadata>
<g id="Layer_1">
	<rect fill="#222222" width="170" height="170"/>
	<circle fill="#A0906D" stroke="#A39369" stroke-width="0.75" stroke-miterlimit="10" cx="85.172" cy="86.67" r="41.625"/>
	<g>
		<path fill="#FFFFFF" d="M88.266,67.657l0.902,0.551c-1.312,2.217-2.246,4.176-2.799,5.877c-0.555,1.701-0.918,3.692-1.092,5.971
			l8.988-7.125l5.455,6.361l-9.329,6.638c1.436,0.766,2.688,1.716,3.757,2.85s2.313,2.904,3.734,5.312
			c1.42,2.408,2.286,3.779,2.598,4.115c0.312,0.337,0.617,0.505,0.913,0.505c0.297,0,0.749-0.305,1.358-0.914l1.217-1.148
			l0.738,0.879l-5.824,5.637c-0.813-0.562-1.455-1.145-1.924-1.746c-0.47-0.602-1.494-2.316-3.073-5.145l-6.054,6.891
			c-1.874-0.828-3.568-1.422-5.083-1.781s-3.068-0.539-4.661-0.539c-1.562,0-3.092,0.176-4.591,0.527
			c-1.499,0.352-3.224,0.949-5.176,1.793l-0.762-1.09c3.062-2.435,5.258-4.597,6.586-6.485c0.656-0.938,0.984-1.842,0.984-2.717
			c0-0.827-0.273-1.514-0.818-2.061c-0.546-0.546-1.192-0.819-1.94-0.819c-0.686,0-1.294,0.352-1.823,1.055l-0.832-0.387
			c0.281-0.925,0.754-1.644,1.418-2.153s1.418-0.765,2.262-0.765c0.547,0,1.117,0.109,1.711,0.328s1.211,0.555,1.852,1.008
			c0.031-0.5,0.047-0.938,0.047-1.312c0-1.672-0.484-3.023-1.451-4.055c-0.967-1.031-2.129-1.547-3.486-1.547
			c-0.78,0-1.56,0.352-2.34,1.055l-0.785-0.316c0.375-1.004,0.93-1.761,1.664-2.271s1.586-0.765,2.555-0.765
			c0.516,0,1.074,0.105,1.676,0.316s1.238,0.527,1.91,0.949c-0.031-0.656-0.047-1.226-0.047-1.71c0-1.451,0.296-2.73,0.89-3.838
			c0.593-1.107,2.286-3.12,5.08-6.038c-1.655,0.956-2.962,1.595-3.921,1.916c-0.96,0.322-1.908,0.482-2.845,0.482
			c-0.5,0-1.147-0.074-1.943-0.223c-0.796-0.148-1.366-0.223-1.709-0.223c-1.139,0-2.103,0.293-2.891,0.879
			s-1.541,1.566-2.259,2.941l-0.785-0.176c0.328-1.581,0.726-2.762,1.194-3.544c0.734-1.252,1.651-2.222,2.752-2.911
			c1.101-0.688,2.213-1.033,3.337-1.033c0.875,0,1.96,0.203,3.256,0.609s2.358,0.609,3.186,0.609c1.358,0,2.818-0.406,4.38-1.219
			l0.855,0.551c-1.281,1.874-2.246,4.018-2.895,6.432c-0.648,2.413-0.973,4.752-0.973,7.017l0.094,6.678
			c0,0.999-0.156,1.916-0.468,2.752c-0.312,0.836-0.761,1.586-1.347,2.25s-0.949,1.059-1.089,1.183l-6.887,5.764
			c1.203-0.641,2.491-1.258,3.865-1.852c2.499-1.062,4.283-1.984,5.353-2.766s1.894-1.777,2.472-2.988
			c0.578-1.211,0.867-2.746,0.867-4.605l-0.094-7.289c0-1.766,0.308-3.777,0.923-6.035S86.77,70.126,88.266,67.657z M93.369,95.361
			c-1.454-2.329-2.799-3.927-4.034-4.794s-2.588-1.332-4.058-1.395c-0.047,1.766-0.395,3.234-1.043,4.406s-1.738,2.297-3.27,3.375
			c2.407,0.125,4.181,0.328,5.322,0.609c1.141,0.281,2.406,0.781,3.798,1.501L93.369,95.361z M91.22,76.654l-5.942,4.771v0.705
			l0.047,3.734l-0.047,2.278l9.844-6.938L91.22,76.654z"/>
	</g>
</g>
<g id="Layer_2">
</g>
<g id="Layer_3">
</g>
</svg>
