<svg xmlns="http://www.w3.org/2000/svg" aria-labelledby="title" viewBox="0 0 110 110"><title id="title">Logo</title><path d="m59.2 32l1.1 0.7c-1.6 2.8-2.8 5.2-3.5 7.3-0.7 2.1-1.1 4.6-1.4 7.5l11.2-8.9 6.8 8-11.7 8.3c1.8 1 3.4 2.1 4.7 3.6 1.3 1.4 2.9 3.6 4.7 6.6 1.8 3 2.9 4.7 3.2 5.1 0.4 0.4 0.8 0.6 1.1 0.6s0.9-0.4 1.7-1.1l1.5-1.4 0.9 1.1-7.3 7c-1-0.7-1.8-1.4-2.4-2.2-0.6-0.8-1.9-2.9-3.8-6.4l-7.6 8.6c-2.3-1-4.5-1.8-6.4-2.2-1.9-0.4-3.8-0.7-5.8-0.7-2 0-3.9 0.2-5.7 0.7-1.9 0.4-4 1.2-6.5 2.2l-1-1.4c3.8-3 6.6-5.7 8.2-8.1 0.8-1.2 1.2-2.3 1.2-3.4 0-1-0.3-1.9-1-2.6-0.7-0.7-1.5-1-2.4-1-0.9 0-1.6 0.4-2.3 1.3l-1-0.5c0.4-1.2 0.9-2.1 1.8-2.7s1.8-1 2.8-1c0.7 0 1.4 0.1 2.1 0.4 0.7 0.3 1.5 0.7 2.3 1.3 0-0.6 0.1-1.2 0.1-1.6 0-2.1-0.6-3.8-1.8-5.1s-2.7-1.9-4.4-1.9c-1 0-1.9 0.4-2.9 1.3l-1-0.4c0.5-1.3 1.2-2.2 2.1-2.8 0.9-0.6 2-1 3.2-1 0.6 0 1.3 0.1 2.1 0.4s1.5 0.7 2.4 1.2c0-0.8-0.1-1.5-0.1-2.1 0-1.8 0.4-3.4 1.1-4.8 0.7-1.4 2.9-3.9 6.4-7.5-2.1 1.2-3.7 2-4.9 2.4-1.2 0.4-2.4 0.6-3.6 0.6-0.6 0-1.4-0.1-2.4-0.3s-1.7-0.3-2.1-0.3c-1.4 0-2.6 0.4-3.6 1.1-1 0.7-1.9 2-2.8 3.7l-1-0.2c0.4-2 0.9-3.5 1.5-4.4 0.9-1.6 2.1-2.8 3.4-3.6 1.4-0.9 2.8-1.3 4.2-1.3 1.1 0 2.4 0.3 4.1 0.8s2.9 0.8 4 0.8c1.7 0 3.5-0.5 5.5-1.5l1.1 0.7c-1.6 2.3-2.8 5-3.6 8-0.8 3-1.2 5.9-1.2 8.8l0.1 8.3c0 1.3-0.2 2.4-0.6 3.4-0.4 1-1 2-1.7 2.8s-1.2 1.3-1.4 1.5l-8.6 7.2c1.5-0.8 3.1-1.6 4.8-2.3 3.1-1.3 5.4-2.5 6.7-3.5s2.4-2.2 3.1-3.7c0.7-1.5 1.1-3.4 1.1-5.8l-0.1-9.1c0-2.2 0.4-4.7 1.2-7.5 0.8-2.8 2.1-5.8 4-8.9zm6.4 34.6c-1.8-2.9-3.5-4.9-5-6-1.5-1.1-3.2-1.7-5.1-1.7-0.1 2.2-0.5 4-1.3 5.5s-2.2 2.9-4.1 4.2c3 0.2 5.2 0.4 6.7 0.8s3 1 4.7 1.9l4.1-4.6zm-2.7-23.4l-7.4 6v0.9l0.1 4.7-0.1 2.8 12.3-8.7-4.9-5.7z" fill="#fff"/></svg>
