<svg xmlns="http://www.w3.org/2000/svg" viewBox="0 0 170 170"><circle cx="85.2" cy="86.7" r="41.6" style="fill:#A0906D"/><path d="m88.3 67.7l0.9 0.6c-1.3 2.2-2.2 4.2-2.8 5.9-0.6 1.7-0.9 3.7-1.1 6l9-7.1 5.5 6.4-9.3 6.6c1.4 0.8 2.7 1.7 3.8 2.9s2.3 2.9 3.7 5.3c1.4 2.4 2.3 3.8 2.6 4.1 0.3 0.3 0.6 0.5 0.9 0.5 0.3 0 0.7-0.3 1.4-0.9l1.2-1.1 0.7 0.9-5.8 5.6c-0.8-0.6-1.5-1.1-1.9-1.7-0.5-0.6-1.5-2.3-3.1-5.1l-6.1 6.9c-1.9-0.8-3.6-1.4-5.1-1.8s-3.1-0.5-4.7-0.5c-1.6 0-3.1 0.2-4.6 0.5-1.5 0.4-3.2 0.9-5.2 1.8l-0.8-1.1c3.1-2.4 5.3-4.6 6.6-6.5 0.7-0.9 1-1.8 1-2.7 0-0.8-0.3-1.5-0.8-2.1-0.5-0.5-1.2-0.8-1.9-0.8-0.7 0-1.3 0.4-1.8 1.1l-0.8-0.4c0.3-0.9 0.8-1.6 1.4-2.2s1.4-0.8 2.3-0.8c0.5 0 1.1 0.1 1.7 0.3s1.2 0.6 1.9 1c0-0.5 0-0.9 0-1.3 0-1.7-0.5-3-1.5-4.1-1-1-2.1-1.5-3.5-1.5-0.8 0-1.6 0.4-2.3 1.1l-0.8-0.3c0.4-1 0.9-1.8 1.7-2.3s1.6-0.8 2.6-0.8c0.5 0 1.1 0.1 1.7 0.3s1.2 0.5 1.9 0.9c0-0.7 0-1.2 0-1.7 0-1.5 0.3-2.7 0.9-3.8 0.6-1.1 2.3-3.1 5.1-6-1.7 1-3 1.6-3.9 1.9-1 0.3-1.9 0.5-2.8 0.5-0.5 0-1.1-0.1-1.9-0.2-0.8-0.1-1.4-0.2-1.7-0.2-1.1 0-2.1 0.3-2.9 0.9s-1.5 1.6-2.3 2.9l-0.8-0.2c0.3-1.6 0.7-2.8 1.2-3.5 0.7-1.3 1.7-2.2 2.8-2.9 1.1-0.7 2.2-1 3.3-1 0.9 0 2 0.2 3.3 0.6s2.4 0.6 3.2 0.6c1.4 0 2.8-0.4 4.4-1.2l0.9 0.6c-1.3 1.9-2.2 4-2.9 6.4-0.6 2.4-1 4.8-1 7l0.1 6.7c0 1-0.2 1.9-0.5 2.8s-0.8 1.6-1.3 2.3-0.9 1.1-1.1 1.2l-6.9 5.8c1.2-0.6 2.5-1.3 3.9-1.9 2.5-1.1 4.3-2 5.4-2.8s1.9-1.8 2.5-3 0.9-2.7 0.9-4.6l-0.1-7.3c0-1.8 0.3-3.8 0.9-6s1.7-4.6 3.2-7.1zm5.1 27.7c-1.5-2.3-2.8-3.9-4-4.8s-2.6-1.3-4.1-1.4c0 1.8-0.4 3.2-1 4.4s-1.7 2.3-3.3 3.4c2.4 0.1 4.2 0.3 5.3 0.6s2.4 0.8 3.8 1.5l3.3-3.7zm-2.1-18.7l-5.9 4.8v0.7l0 3.7 0 2.3 9.8-6.9-3.9-4.5z" fill="#fff"/></svg>