<?xml version="1.0" encoding="utf-8"?>
<!-- Generator: Adobe Illustrator 16.0.4, SVG Export Plug-In . SVG Version: 6.00 Build 0)  -->
<!DOCTYPE svg PUBLIC "-//W3C//DTD SVG 1.1//EN" "http://www.w3.org/Graphics/SVG/1.1/DTD/svg11.dtd">
<svg version="1.1" xmlns="http://www.w3.org/2000/svg" xmlns:xlink="http://www.w3.org/1999/xlink" x="0px" y="0px" width="110px"
	 height="110px" viewBox="0 0 110 110" enable-background="new 0 0 110 110" xml:space="preserve">
<g id="Layer_2">
	<circle stroke="#000000" stroke-miterlimit="10" cx="55.224" cy="54.946" r="52.812"/>
</g>
<g id="Layer_3">
	<g>
		<g>
			<path fill="#FFFFFF" d="M59.226,32.037l1.128,0.688c-1.641,2.771-2.808,5.219-3.499,7.346c-0.692,2.127-1.146,4.615-1.364,7.463
				l11.235-8.906l6.818,7.951l-11.661,8.298c1.795,0.958,3.36,2.145,4.696,3.562c1.336,1.417,2.893,3.63,4.667,6.64
				c1.775,3.01,2.858,4.725,3.248,5.145c0.391,0.42,0.771,0.63,1.142,0.63s0.937-0.381,1.697-1.143l1.521-1.436l0.923,1.099
				l-7.28,7.046c-1.017-0.703-1.818-1.431-2.404-2.183c-0.587-0.751-1.867-2.896-3.843-6.431l-7.566,8.613
				c-2.343-1.035-4.461-1.777-6.354-2.227c-1.894-0.449-3.836-0.674-5.826-0.674c-1.952,0-3.865,0.22-5.739,0.659
				s-4.031,1.187-6.471,2.241l-0.952-1.362c3.828-3.043,6.572-5.746,8.232-8.107c0.82-1.17,1.23-2.302,1.23-3.396
				c0-1.033-0.341-1.892-1.023-2.575c-0.682-0.683-1.49-1.024-2.425-1.024c-0.857,0-1.617,0.439-2.279,1.318l-1.04-0.483
				c0.352-1.157,0.942-2.054,1.772-2.691s1.772-0.956,2.827-0.956c0.684,0,1.396,0.137,2.139,0.41
				c0.742,0.274,1.514,0.693,2.314,1.26c0.039-0.625,0.059-1.172,0.059-1.641c0-2.09-0.604-3.779-1.813-5.068
				s-2.661-1.934-4.358-1.934c-0.975,0-1.95,0.439-2.925,1.318l-0.981-0.396c0.469-1.255,1.162-2.201,2.08-2.838
				c0.918-0.638,1.982-0.956,3.193-0.956c0.645,0,1.343,0.132,2.095,0.396s1.548,0.659,2.388,1.187
				c-0.039-0.82-0.059-1.533-0.059-2.138c0-1.813,0.37-3.413,1.112-4.797c0.741-1.384,2.857-3.9,6.35-7.547
				c-2.068,1.195-3.702,1.994-4.901,2.395c-1.199,0.402-2.385,0.603-3.556,0.603c-0.624,0-1.434-0.092-2.429-0.278
				c-0.995-0.186-1.707-0.278-2.136-0.278c-1.424,0-2.629,0.366-3.614,1.099c-0.984,0.732-1.926,1.958-2.823,3.677l-0.981-0.22
				c0.41-1.976,0.907-3.453,1.493-4.431c0.917-1.564,2.064-2.778,3.44-3.638c1.376-0.861,2.767-1.292,4.172-1.292
				c1.093,0,2.449,0.254,4.069,0.762c1.62,0.508,2.947,0.762,3.982,0.762c1.697,0,3.522-0.508,5.475-1.523l1.069,0.688
				c-1.602,2.343-2.808,5.022-3.618,8.039s-1.216,5.94-1.216,8.771l0.117,8.346c0,1.25-0.195,2.396-0.586,3.441
				c-0.39,1.045-0.951,1.982-1.684,2.812s-1.186,1.323-1.361,1.479l-8.607,7.204c1.503-0.801,3.113-1.572,4.831-2.314
				c3.123-1.328,5.354-2.48,6.691-3.457c1.337-0.977,2.367-2.222,3.089-3.735c0.723-1.513,1.084-3.432,1.084-5.757l-0.117-9.111
				c0-2.207,0.385-4.721,1.154-7.544C56.036,38.077,57.356,35.123,59.226,32.037z M65.605,66.666
				c-1.818-2.911-3.499-4.908-5.043-5.992s-3.234-1.665-5.072-1.743c-0.059,2.208-0.493,4.043-1.304,5.508s-2.173,2.871-4.087,4.219
				c3.009,0.157,5.226,0.41,6.652,0.762c1.426,0.352,3.009,0.977,4.748,1.875L65.605,66.666z M62.918,43.283l-7.428,5.963v0.881
				l0.059,4.667l-0.059,2.848l12.305-8.672L62.918,43.283z"/>
		</g>
	</g>
</g>
</svg>
