<svg xmlns="http://www.w3.org/2000/svg" width="110" height="110"><circle stroke="#000" stroke-miterlimit="10" cx="55.224" cy="54.946" r="52.812"/><path fill="#FFF" d="M59.226 32.037l1.128.688c-1.641 2.771-2.808 5.219-3.499 7.346-.692 2.127-1.146 4.615-1.364 7.463l11.235-8.906 6.818 7.951-11.661 8.298a18.125 18.125 0 0 1 4.696 3.562c1.336 1.417 2.893 3.63 4.667 6.64 1.775 3.01 2.858 4.725 3.248 5.145.391.42.771.63 1.142.63s.937-.381 1.697-1.143l1.521-1.436.923 1.099-7.28 7.046c-1.017-.703-1.818-1.431-2.404-2.183-.587-.751-1.867-2.896-3.843-6.431l-7.566 8.613c-2.343-1.035-4.461-1.777-6.354-2.227a25.17 25.17 0 0 0-5.826-.674c-1.952 0-3.865.22-5.739.659s-4.031 1.187-6.471 2.241l-.952-1.362c3.828-3.043 6.572-5.746 8.232-8.107.82-1.17 1.23-2.302 1.23-3.396 0-1.033-.341-1.892-1.023-2.575-.682-.683-1.49-1.024-2.425-1.024-.857 0-1.617.439-2.279 1.318l-1.04-.483c.352-1.157.942-2.054 1.772-2.691s1.772-.956 2.827-.956c.684 0 1.396.137 2.139.41.742.274 1.514.693 2.314 1.26.039-.625.059-1.172.059-1.641 0-2.09-.604-3.779-1.813-5.068s-2.661-1.934-4.358-1.934c-.975 0-1.95.439-2.925 1.318l-.981-.396c.469-1.255 1.162-2.201 2.08-2.838.918-.638 1.982-.956 3.193-.956.645 0 1.343.132 2.095.396s1.548.659 2.388 1.187a45.873 45.873 0 0 1-.059-2.138c0-1.813.37-3.413 1.112-4.797.741-1.384 2.857-3.9 6.35-7.547-2.068 1.195-3.702 1.994-4.901 2.395a11.14 11.14 0 0 1-3.556.603c-.624 0-1.434-.092-2.429-.278-.995-.186-1.707-.278-2.136-.278-1.424 0-2.629.366-3.614 1.099-.984.732-1.926 1.958-2.823 3.677l-.981-.22c.41-1.976.907-3.453 1.493-4.431.917-1.564 2.064-2.778 3.44-3.638 1.376-.861 2.767-1.292 4.172-1.292 1.093 0 2.449.254 4.069.762s2.947.762 3.982.762c1.697 0 3.522-.508 5.475-1.523l1.069.688c-1.602 2.343-2.808 5.022-3.618 8.039s-1.216 5.94-1.216 8.771l.117 8.346c0 1.25-.195 2.396-.586 3.441-.39 1.045-.951 1.982-1.684 2.812s-1.186 1.323-1.361 1.479l-8.607 7.204a65.46 65.46 0 0 1 4.831-2.314c3.123-1.328 5.354-2.48 6.691-3.457a9.755 9.755 0 0 0 3.089-3.735c.723-1.513 1.084-3.432 1.084-5.757l-.117-9.111c0-2.207.385-4.721 1.154-7.544.769-2.821 2.089-5.775 3.959-8.861zm6.379 34.629c-1.818-2.911-3.499-4.908-5.043-5.992s-3.234-1.665-5.072-1.743c-.059 2.208-.493 4.043-1.304 5.508s-2.173 2.871-4.087 4.219c3.009.157 5.226.41 6.652.762 1.426.352 3.009.977 4.748 1.875l4.106-4.629zm-2.687-23.383l-7.428 5.963v.881l.059 4.667-.059 2.848 12.305-8.672-4.877-5.687z"/></svg>
